<svg width="207" height="44" viewBox="0 0 207 44" fill="none" xmlns="http://www.w3.org/2000/svg">
<path d="M45.2031 42.625C56.594 42.625 65.8281 33.3909 65.8281 22C65.8281 10.6091 56.594 1.375 45.2031 1.375C39.9274 1.375 35.1143 3.35582 31.467 6.61433C29.252 8.59322 25.7006 8.97158 22.974 7.79346C21.0943 6.98129 19.0216 6.53125 16.8437 6.53125C8.30056 6.53125 1.375 13.4568 1.375 22C1.375 30.5432 8.30056 37.4688 16.8437 37.4688C19.0216 37.4688 21.0943 37.0187 22.974 36.2065C25.7006 35.0284 29.252 35.4068 31.467 37.3857C35.1143 40.6442 39.9274 42.625 45.2031 42.625Z" fill="url(#paint0_linear_10_321)"/>
<path d="M82.5 37.1757C82.5 35.0595 82.6411 32.9609 82.9232 30.88C83.2054 28.799 83.4523 26.7181 83.6639 24.6371C83.6639 24.5313 83.6816 24.3021 83.7168 23.9494C83.7521 23.5614 83.7874 23.1558 83.8226 22.7325C83.8932 22.3093 83.9461 21.9213 83.9814 21.5686C84.0519 21.1806 84.0872 20.9338 84.0872 20.8279V20.6163L86.3092 4.10981C86.2387 3.4044 86.3445 2.78717 86.6266 2.25811C86.9441 1.69379 87.5084 1.41163 88.3196 1.41163C89.2014 1.30582 89.9244 1.42926 90.4887 1.78197C91.0883 2.0994 91.5821 2.52264 91.9701 3.0517C92.3581 3.58075 92.6755 4.16271 92.9224 4.79758C93.1693 5.43244 93.4338 6.0144 93.716 6.54346C93.8923 7.03724 94.104 7.6192 94.3509 8.28934C94.633 8.95948 94.9504 9.80596 95.3032 10.8288C95.6911 11.8516 96.132 13.1037 96.6258 14.5851C97.1548 16.0664 97.7544 17.8652 98.4246 19.9815L98.6362 20.1931C98.8831 20.052 99.3416 19.8227 100.012 19.5053C100.717 19.1879 101.44 18.8528 102.181 18.5001C102.957 18.1474 103.68 17.8123 104.35 17.4949C105.02 17.1775 105.496 16.9658 105.778 16.86C105.814 16.7895 105.902 16.7366 106.043 16.7013C106.219 16.6308 106.343 16.5779 106.413 16.5426H106.519C106.872 16.5426 107.136 16.6837 107.313 16.9658C107.489 17.2127 107.577 17.4596 107.577 17.7065C107.577 18.0945 107.489 18.4296 107.313 18.7117C107.136 18.9939 106.925 19.2584 106.678 19.5053C106.466 19.7169 106.219 19.9285 105.937 20.1402C105.69 20.3518 105.496 20.581 105.355 20.8279L100.118 23.4732C99.9765 23.6496 99.9059 23.7906 99.9059 23.8965C99.9059 24.1786 100.047 24.6195 100.329 25.2191C100.647 25.8187 100.894 26.2948 101.07 26.6475C101.176 26.8592 101.352 27.2471 101.599 27.8115C101.846 28.3758 102.11 28.9578 102.392 29.5573C102.675 30.1569 102.939 30.7389 103.186 31.3032C103.468 31.8323 103.662 32.2026 103.768 32.4142V32.573C103.768 33.8427 103.133 34.4776 101.863 34.4776C101.475 34.4776 101.07 34.4423 100.647 34.3717C100.223 34.2659 99.9059 34.0014 99.6943 33.5782L96.1496 26.0127H95.6735C94.3332 27.0355 92.9048 28.0407 91.3881 29.0283C89.8715 30.0159 88.3196 30.8623 86.7324 31.5678C86.4856 32.8375 86.3268 34.1249 86.2563 35.4299C86.221 36.7349 86.2387 38.0399 86.3092 39.3449C86.027 39.7328 85.7449 40.0326 85.4627 40.2443C85.1805 40.4206 84.7926 40.5088 84.2988 40.5088C83.805 40.5088 83.4347 40.403 83.1878 40.1913C82.9409 39.9445 82.7645 39.6623 82.6587 39.3449C82.5529 38.9922 82.5 38.6218 82.5 38.2338C82.5 37.8459 82.5 37.4932 82.5 37.1757ZM87.2086 26.9121C88.2667 26.4888 89.2896 25.9245 90.2771 25.2191C91.3 24.5137 92.2699 23.8612 93.1869 23.2616C93.2927 23.191 93.4162 23.1205 93.5573 23.05C93.7336 22.9794 93.8923 22.8913 94.0334 22.7854C94.1745 22.6796 94.3509 22.5562 94.5625 22.4151V21.9919L89.6952 8.13062L89.4835 7.919C89.3777 8.13062 89.2366 8.73022 89.0603 9.71779C88.9192 10.7054 88.7429 11.9927 88.5312 13.5799C88.3549 15.1318 88.1433 16.9306 87.8964 18.9762C87.6847 21.0219 87.4555 23.2087 87.2086 25.5365V26.9121Z" fill="#0A0A0A"/>
<path d="M120.34 35.4828C120.093 36.0118 119.846 36.5938 119.6 37.2286C119.353 37.8282 119.07 38.3749 118.753 38.8687C118.436 39.3625 118.048 39.7857 117.589 40.1384C117.131 40.4559 116.549 40.6146 115.843 40.6146C114.609 40.6146 113.586 40.3148 112.775 39.7152C111.963 39.0803 111.293 38.3044 110.764 37.3874C110.271 36.4351 109.918 35.4122 109.706 34.3188C109.495 33.2255 109.389 32.2026 109.389 31.2503L109.812 18.4472C109.777 18.2003 109.83 17.9534 109.971 17.7065C110.147 17.4244 110.359 17.1775 110.606 16.9658C110.888 16.7189 111.188 16.525 111.505 16.3839C111.858 16.2428 112.175 16.1723 112.457 16.1723C113.268 16.1723 113.956 16.4368 114.521 16.9658C115.085 17.4596 115.367 18.1121 115.367 18.9233V19.4524C114.979 20.0873 114.644 20.9161 114.362 21.939C114.08 22.9618 113.85 24.0728 113.674 25.272C113.533 26.4359 113.445 27.6351 113.41 28.8696C113.374 30.104 113.41 31.2327 113.515 32.2555C113.656 33.2784 113.868 34.1601 114.15 34.9008C114.432 35.6062 114.803 36.0294 115.261 36.1705C115.438 36.1705 115.702 36.0824 116.055 35.906C116.443 35.7297 116.848 35.3946 117.272 34.9008C117.695 34.407 118.136 33.7192 118.594 32.8375C119.053 31.9205 119.458 30.7213 119.811 29.2399C120.164 27.7586 120.428 25.9598 120.605 23.8436C120.781 21.7273 120.834 19.1879 120.763 16.2252C120.905 15.8372 121.099 15.6256 121.345 15.5903C121.628 15.555 121.91 15.5374 122.192 15.5374C122.509 15.5374 122.774 15.555 122.985 15.5903C123.197 15.5903 123.426 15.7137 123.673 15.9606C123.85 16.137 124.044 16.4015 124.255 16.7542C124.467 17.1069 124.573 17.3009 124.573 17.3362L125.472 40.7733C125.472 41.3024 125.331 41.7432 125.049 42.0959C124.767 42.4486 124.361 42.625 123.832 42.625C123.656 42.625 123.444 42.6074 123.197 42.5721C122.95 42.5368 122.703 42.4663 122.456 42.3605C122.21 42.2547 121.98 42.1136 121.769 41.9372C121.592 41.7961 121.486 41.6198 121.451 41.4082L120.552 36.1176L120.34 35.4828Z" fill="#0A0A0A"/>
<path d="M131.304 38.2338C131.234 36.9641 131.11 35.2711 130.934 33.1549C130.793 31.0034 130.617 28.7814 130.405 26.4888C130.229 24.1963 130.035 22.0271 129.823 19.9815C129.611 17.9358 129.435 16.3486 129.294 15.22C129.294 14.7614 129.506 14.4616 129.929 14.3206C130.352 14.1795 130.758 14.1089 131.146 14.1089C131.639 14.1089 132.151 14.25 132.68 14.5322C133.244 14.8143 133.597 15.2023 133.738 15.6961C133.738 15.8372 133.756 16.1017 133.791 16.4897C133.826 16.8424 133.844 17.2127 133.844 17.6007C133.879 17.9887 133.914 18.3767 133.95 18.7646C133.985 19.1173 134.003 19.3642 134.003 19.5053C134.003 19.7169 134.003 19.8756 134.003 19.9815C134.003 20.0873 134.003 20.1931 134.003 20.2989C134.003 20.3694 134.02 20.4576 134.055 20.5634C134.091 20.6692 134.144 20.8456 134.214 21.0925C134.285 21.0219 134.355 20.9338 134.426 20.8279C134.532 20.7221 134.602 20.6516 134.637 20.6163C135.202 19.8051 135.748 19.0997 136.277 18.5001C136.807 17.8652 137.353 17.2833 137.918 16.7542C138.482 16.1899 139.099 15.6079 139.769 15.0083C140.475 14.3735 141.286 13.6504 142.203 12.8392C142.415 12.6629 142.573 12.5394 142.679 12.4689C142.785 12.3631 142.873 12.2925 142.944 12.2573C143.049 12.1867 143.155 12.1514 143.261 12.1514C143.367 12.1162 143.508 12.0985 143.684 12.0985C144.284 12.0985 144.883 12.3102 145.483 12.7334C146.118 13.1214 146.435 13.6681 146.435 14.3735C146.435 14.6204 146.347 14.8849 146.171 15.1671C145.994 15.4139 145.783 15.6608 145.536 15.9077C145.289 16.1194 145.025 16.3133 144.742 16.4897C144.495 16.666 144.266 16.7895 144.055 16.86C143.138 17.6712 142.168 18.6059 141.145 19.664C140.122 20.6869 139.17 21.7979 138.288 22.9971C137.406 24.1963 136.683 25.4484 136.119 26.7534C135.554 28.0584 135.272 29.3634 135.272 30.6684C135.272 31.8676 135.36 33.0491 135.537 34.213C135.713 35.3769 135.801 36.5585 135.801 37.7577V39.6094C135.519 39.8915 135.272 40.1208 135.061 40.2972C134.849 40.4735 134.549 40.5617 134.161 40.5617C133.562 40.5617 132.98 40.3148 132.415 39.821C131.851 39.292 131.481 38.7629 131.304 38.2338Z" fill="#0A0A0A"/>
<path d="M148.511 32.4142L150.469 18.8175C150.539 18.359 150.733 18.0239 151.051 17.8123C151.404 17.6007 151.791 17.4949 152.215 17.4949C152.991 17.4949 153.608 17.7241 154.066 18.1827C154.525 18.6059 154.913 19.135 155.23 19.7698H155.283C155.707 19.7698 156.077 19.6993 156.394 19.5582C156.747 19.3819 157.17 19.2937 157.664 19.2937C158.793 19.2937 159.745 19.6464 160.521 20.3518C161.332 21.0572 161.985 21.9213 162.478 22.9442C162.972 23.9317 163.325 25.0075 163.537 26.1714C163.783 27.3353 163.907 28.3582 163.907 29.2399C163.907 30.298 163.625 31.4796 163.06 32.7846C162.531 34.0896 161.808 35.324 160.891 36.488C160.009 37.6519 159.004 38.6218 157.876 39.3978C156.747 40.1737 155.601 40.5617 154.437 40.5617C153.379 40.5617 152.462 40.3148 151.686 39.821C150.945 39.3272 150.328 38.71 149.834 37.9693C149.375 37.1934 149.04 36.3292 148.829 35.3769C148.617 34.4246 148.511 33.49 148.511 32.573V32.4142ZM152.955 32.7317C153.026 33.0844 153.097 33.49 153.167 33.9485C153.238 34.407 153.343 34.8303 153.484 35.2182C153.626 35.5709 153.82 35.8531 154.066 36.0647C154.349 36.2411 154.737 36.2411 155.23 36.0647C155.689 35.6415 156.183 35.1653 156.712 34.6363C157.241 34.1072 157.735 33.5429 158.193 32.9433C158.687 32.3437 159.092 31.7088 159.41 31.0387C159.727 30.3686 159.886 29.6632 159.886 28.9225C160.027 27.7233 159.939 26.6299 159.622 25.6423C159.304 24.6195 158.846 23.8965 158.246 23.4732C157.682 23.0147 157.029 22.9618 156.288 23.3145C155.548 23.6319 154.807 24.5313 154.066 26.0127C153.643 26.9297 153.343 28.0055 153.167 29.2399C153.026 30.4391 152.955 31.5501 152.955 32.573V32.7317Z" fill="#0A0A0A"/>
<path d="M169.157 38.2338C169.087 36.9641 168.963 35.2711 168.787 33.1549C168.646 31.0034 168.469 28.7814 168.258 26.4888C168.081 24.1963 167.888 22.0271 167.676 19.9815C167.464 17.9358 167.288 16.3486 167.147 15.22C167.147 14.7614 167.358 14.4616 167.782 14.3206C168.205 14.1795 168.611 14.1089 168.999 14.1089C169.492 14.1089 170.004 14.25 170.533 14.5322C171.097 14.8143 171.45 15.2023 171.591 15.6961C171.591 15.8372 171.609 16.1017 171.644 16.4897C171.679 16.8424 171.697 17.2127 171.697 17.6007C171.732 17.9887 171.767 18.3767 171.803 18.7646C171.838 19.1173 171.855 19.3642 171.855 19.5053C171.855 19.7169 171.855 19.8756 171.855 19.9815C171.855 20.0873 171.855 20.1931 171.855 20.2989C171.855 20.3694 171.873 20.4576 171.908 20.5634C171.944 20.6692 171.996 20.8456 172.067 21.0925C172.138 21.0219 172.208 20.9338 172.279 20.8279C172.384 20.7221 172.455 20.6516 172.49 20.6163C173.055 19.8051 173.601 19.0997 174.13 18.5001C174.659 17.8652 175.206 17.2833 175.77 16.7542C176.335 16.1899 176.952 15.6079 177.622 15.0083C178.328 14.3735 179.139 13.6504 180.056 12.8392C180.267 12.6629 180.426 12.5394 180.532 12.4689C180.638 12.3631 180.726 12.2925 180.796 12.2573C180.902 12.1867 181.008 12.1514 181.114 12.1514C181.22 12.1162 181.361 12.0985 181.537 12.0985C182.137 12.0985 182.736 12.3102 183.336 12.7334C183.971 13.1214 184.288 13.6681 184.288 14.3735C184.288 14.6204 184.2 14.8849 184.024 15.1671C183.847 15.4139 183.636 15.6608 183.389 15.9077C183.142 16.1194 182.877 16.3133 182.595 16.4897C182.348 16.666 182.119 16.7895 181.907 16.86C180.99 17.6712 180.021 18.6059 178.998 19.664C177.975 20.6869 177.023 21.7979 176.141 22.9971C175.259 24.1963 174.536 25.4484 173.972 26.7534C173.407 28.0584 173.125 29.3634 173.125 30.6684C173.125 31.8676 173.213 33.0491 173.39 34.213C173.566 35.3769 173.654 36.5585 173.654 37.7577V39.6094C173.372 39.8915 173.125 40.1208 172.914 40.2972C172.702 40.4735 172.402 40.5617 172.014 40.5617C171.415 40.5617 170.833 40.3148 170.268 39.821C169.704 39.292 169.334 38.7629 169.157 38.2338Z" fill="#0A0A0A"/>
<path d="M198.533 25.7481C198.215 26.3125 197.845 27.0002 197.422 27.8115C197.034 28.5874 196.61 29.4339 196.152 30.3509C195.693 31.2327 195.182 32.1321 194.618 33.0491C194.088 33.9309 193.524 34.7421 192.925 35.4828C192.36 36.2234 191.761 36.8583 191.126 37.3874C190.491 37.8811 189.838 38.1809 189.168 38.2868C188.886 38.2868 188.569 38.2691 188.216 38.2338C187.863 38.1633 187.511 38.0751 187.158 37.9693C186.805 37.8282 186.505 37.6519 186.258 37.4403C186.047 37.1934 185.941 36.8759 185.941 36.488C185.976 32.8904 186.241 29.6279 186.735 26.7004C187.228 23.7377 188.004 21.1454 189.062 18.9233C190.121 16.666 191.478 14.7967 193.136 13.3154C194.794 11.834 196.804 10.7759 199.167 10.141C199.238 10.141 199.361 10.141 199.538 10.141C199.749 10.1058 199.89 10.0881 199.961 10.0881C201.019 10.0529 201.777 10.5466 202.236 11.5695C202.73 12.557 203.082 14.1442 203.294 16.331C203.541 18.4825 203.7 21.2688 203.77 24.69C203.876 28.076 204.07 32.1497 204.352 36.9112C204.458 37.2992 204.511 37.6343 204.511 37.9164C204.546 38.1986 204.564 38.5336 204.564 38.9216C204.564 39.4507 204.405 39.8563 204.088 40.1384C203.77 40.3853 203.365 40.5088 202.871 40.5088C201.848 40.5088 201.125 40.2266 200.702 39.6623C200.278 39.098 199.996 38.3397 199.855 37.3874C199.855 37.3521 199.82 37.0699 199.749 36.5409C199.714 36.0118 199.644 35.4122 199.538 34.7421C199.467 34.0367 199.397 33.3313 199.326 32.6259C199.256 31.9205 199.203 31.3385 199.167 30.88V30.6684C199.097 30.3157 199.044 29.8748 199.009 29.3457C199.009 28.8167 198.973 28.3052 198.903 27.8115C198.832 27.2119 198.779 26.6123 198.744 26.0127L198.533 25.7481ZM197.369 15.2729C196.416 15.9783 195.482 16.9306 194.565 18.1298C193.648 19.329 192.995 20.4929 192.607 21.6215C192.431 22.1506 192.237 22.8736 192.025 23.7906C191.814 24.7077 191.62 25.6247 191.443 26.5417C191.302 27.4235 191.179 28.2523 191.073 29.0283C190.967 29.769 190.914 30.2451 190.914 30.4567C190.949 30.4567 190.985 30.4215 191.02 30.3509C191.09 30.2804 191.143 30.2275 191.179 30.1922C193.365 28.076 194.9 25.8011 195.781 23.3674C196.698 20.8985 197.228 18.2003 197.369 15.2729Z" fill="#0A0A0A"/>
<defs>
<linearGradient id="paint0_linear_10_321" x1="7.82031" y1="10.3984" x2="59.3828" y2="37.4687" gradientUnits="userSpaceOnUse">
<stop stop-color="#30FFA0"/>
<stop offset="1" stop-color="#009EFD"/>
</linearGradient>
</defs>
</svg>
