<svg width="201" height="129" viewBox="0 0 201 129" fill="none" xmlns="http://www.w3.org/2000/svg">
<path d="M136.336 128.128C171.718 128.128 200.4 99.4458 200.4 64.0643C200.4 28.6827 171.718 0.000244141 136.336 0.000244141C119.949 0.000244141 104.999 6.15295 93.67 16.2743C86.7898 22.421 75.7588 23.5962 67.2896 19.9368C61.4511 17.4141 55.0129 16.0162 48.2482 16.0162C21.7119 16.0162 0.200195 37.528 0.200195 64.0643C0.200195 90.6005 21.7119 112.112 48.2482 112.112C55.0129 112.112 61.4511 110.714 67.2896 108.192C75.7588 104.532 86.7898 105.708 93.67 111.854C104.999 121.976 119.949 128.128 136.336 128.128Z" fill="url(#paint0_linear_18_1043)"/>
<defs>
<linearGradient id="paint0_linear_18_1043" x1="20.2202" y1="28.0283" x2="180.38" y2="112.112" gradientUnits="userSpaceOnUse">
<stop stop-color="#30FFA0"/>
<stop offset="1" stop-color="#009EFD"/>
</linearGradient>
</defs>
</svg>
